<?xml version="1.0" encoding="UTF-8"?>
<!DOCTYPE svg PUBLIC "-//W3C//DTD SVG 1.1//EN" "http://www.w3.org/Graphics/SVG/1.1/DTD/svg11.dtd">
<svg xmlns="http://www.w3.org/2000/svg" xmlns:xlink="http://www.w3.org/1999/xlink" version="1.1" width="437" height="437" viewBox="-0.5 -0.5 437 437"><defs><filter id="dropShadow"><feGaussianBlur in="SourceAlpha" stdDeviation="1.7" result="blur"/><feOffset in="blur" dx="3" dy="3" result="offsetBlur"/><feFlood flood-color="#3D4574" flood-opacity="0.4" result="offsetColor"/><feComposite in="offsetColor" in2="offsetBlur" operator="in" result="offsetBlur"/><feBlend in="SourceGraphic" in2="offsetBlur"/></filter></defs><g filter="url(#dropShadow)"><ellipse cx="213" cy="213" rx="76" ry="76" fill="none" stroke="#000000" stroke-width="40" pointer-events="all" transform="translate(2,3)" opacity="0.25"/><ellipse cx="213" cy="213" rx="76" ry="76" fill="none" stroke="#1a9cff" stroke-width="40" pointer-events="all"/><ellipse cx="213.5" cy="46" rx="26.5" ry="5" fill="none" stroke="#000000" stroke-width="40" transform="translate(2,3)rotate(-90,213.5,46)" pointer-events="all" opacity="0.25"/><ellipse cx="213.5" cy="46" rx="26.5" ry="5" fill="none" stroke="#1a9cff" stroke-width="40" transform="rotate(-90,213.5,46)" pointer-events="all"/><ellipse cx="213.5" cy="382" rx="26.5" ry="5" fill="none" stroke="#000000" stroke-width="40" transform="translate(2,3)rotate(-90,213.5,382)" pointer-events="all" opacity="0.25"/><ellipse cx="213.5" cy="382" rx="26.5" ry="5" fill="none" stroke="#1a9cff" stroke-width="40" transform="rotate(-90,213.5,382)" pointer-events="all"/><ellipse cx="382.5" cy="213" rx="26.5" ry="5" fill="none" stroke="#000000" stroke-width="40" transform="translate(2,3)rotate(-180,382.5,213)" pointer-events="all" opacity="0.25"/><ellipse cx="382.5" cy="213" rx="26.5" ry="5" fill="none" stroke="#1a9cff" stroke-width="40" transform="rotate(-180,382.5,213)" pointer-events="all"/><ellipse cx="46.5" cy="213" rx="26.5" ry="5" fill="none" stroke="#000000" stroke-width="40" transform="translate(2,3)rotate(-180,46.5,213)" pointer-events="all" opacity="0.25"/><ellipse cx="46.5" cy="213" rx="26.5" ry="5" fill="none" stroke="#1a9cff" stroke-width="40" transform="rotate(-180,46.5,213)" pointer-events="all"/><ellipse cx="334.5" cy="94" rx="26.5" ry="5" fill="none" stroke="#000000" stroke-width="40" transform="translate(2,3)rotate(-45,334.5,94)" pointer-events="all" opacity="0.25"/><ellipse cx="334.5" cy="94" rx="26.5" ry="5" fill="none" stroke="#1a9cff" stroke-width="40" transform="rotate(-45,334.5,94)" pointer-events="all"/><ellipse cx="94.5" cy="334" rx="26.5" ry="5" fill="none" stroke="#000000" stroke-width="40" transform="translate(2,3)rotate(-45,94.5,334)" pointer-events="all" opacity="0.25"/><ellipse cx="94.5" cy="334" rx="26.5" ry="5" fill="none" stroke="#1a9cff" stroke-width="40" transform="rotate(-45,94.5,334)" pointer-events="all"/><ellipse cx="94.5" cy="84" rx="26.5" ry="5" fill="none" stroke="#000000" stroke-width="40" transform="translate(2,3)rotate(-135,94.5,84)" pointer-events="all" opacity="0.25"/><ellipse cx="94.5" cy="84" rx="26.5" ry="5" fill="none" stroke="#1a9cff" stroke-width="40" transform="rotate(-135,94.5,84)" pointer-events="all"/><ellipse cx="334.5" cy="334" rx="26.5" ry="5" fill="none" stroke="#000000" stroke-width="40" transform="translate(2,3)rotate(-135,334.5,334)" pointer-events="all" opacity="0.25"/><ellipse cx="334.5" cy="334" rx="26.5" ry="5" fill="none" stroke="#1a9cff" stroke-width="40" transform="rotate(-135,334.5,334)" pointer-events="all"/></g></svg>